<svg width="3792" height="2169" viewBox="0 0 3792 2169" fill="none" xmlns="http://www.w3.org/2000/svg">
<rect width="3792" height="2169" fill="black"/>
<path fill-rule="evenodd" clip-rule="evenodd" d="M3202.46 1193.48C3253.79 1193.48 3288.83 1205.9 3307.59 1230.74L3312.56 1204.23H3435.9L3363.07 1615.65C3350.93 1685.74 3323.05 1741.2 3279.46 1782.03C3236.42 1822.87 3187.02 1843.28 3131.28 1843.28C3075.54 1843.28 3035.26 1833.08 3010.43 1812.66C2986.15 1792.24 2974.01 1765.47 2974.01 1732.36C2974.01 1683.8 3004.91 1641.59 3066.71 1605.72C3019.81 1590.82 2996.35 1555.21 2996.35 1498.92C2996.35 1485.13 2997.74 1469.95 3000.49 1453.4L3017.04 1356.56C3025.87 1306.89 3046.31 1267.43 3078.31 1238.18C3110.32 1208.38 3151.7 1193.48 3202.46 1193.48ZM3228.97 1579.24C3152.26 1615.11 3113.91 1651.24 3113.91 1687.66C3113.91 1698.7 3116.92 1707.54 3123 1714.17C3129.62 1721.34 3138.73 1724.92 3150.32 1724.92C3186.19 1724.92 3209.65 1692.36 3220.68 1627.24L3228.97 1579.24ZM3228.97 1311.85C3207.45 1311.85 3190.61 1317.37 3178.47 1328.4C3166.34 1339.44 3158.6 1354.35 3155.29 1373.11L3144.53 1435.2C3143.43 1440.17 3142.86 1447.07 3142.86 1455.89C3142.86 1464.72 3147.01 1473.55 3155.29 1482.38C3163.57 1490.65 3177.36 1494.8 3196.67 1494.8C3216.54 1494.8 3233.66 1487.07 3248.01 1471.62L3272.82 1332.55C3265.1 1318.76 3250.48 1311.86 3228.97 1311.85Z" fill="white"/>
<path fill-rule="evenodd" clip-rule="evenodd" d="M730.279 589.696C786.563 589.698 825.468 604.599 846.989 634.397C862.44 654.816 870.174 680.763 870.174 712.218C870.173 724.908 868.791 738.432 866.032 752.776L849.463 849.619C840.081 902.045 819.94 942.055 789.036 969.647C758.133 996.687 719.505 1010.21 673.15 1010.21C626.799 1010.21 594.52 997.794 576.308 972.965L535.206 1208.11C558.867 1193.99 588.352 1186.92 623.664 1186.92C679.948 1186.92 718.851 1201.83 740.374 1231.62C755.826 1252.04 763.559 1277.99 763.559 1309.44C763.558 1322.13 762.175 1335.65 759.416 1350L742.867 1446.84C733.486 1499.27 713.34 1539.28 682.44 1566.87C651.539 1593.91 612.907 1607.45 566.556 1607.45C520.2 1607.45 487.904 1595.02 469.692 1570.19L424.991 1825.97H284.271L396.377 1197.68L501.806 600.454H629.273L625.132 622.815C651.069 600.741 686.131 589.696 730.279 589.696ZM569.854 1305.3C541.161 1305.3 522.4 1312.2 513.569 1325.99L488.735 1465.06C496.461 1480.51 512.746 1488.25 537.579 1488.25C553.026 1488.25 567.37 1483.28 580.611 1473.35C593.855 1463.41 602.133 1448.51 605.445 1428.65L616.203 1366.55C617.306 1361.03 617.872 1354.13 617.872 1345.86C617.871 1337.58 614.285 1328.75 607.114 1319.38C599.94 1309.99 587.513 1305.3 569.854 1305.3ZM676.469 708.075C647.772 708.075 628.995 714.97 620.165 728.767L595.331 867.838C603.057 883.288 619.344 891.002 644.174 891.003C659.626 891.003 673.982 886.036 687.227 876.103C700.468 866.169 708.75 851.266 712.061 831.401L722.819 769.326C723.923 763.808 724.468 756.91 724.468 748.634C724.468 740.356 720.884 731.512 713.71 722.131C706.536 712.756 694.12 708.076 676.469 708.075Z" fill="white"/>
<path d="M1949.8 1241.5C1980.15 1208.94 2018.24 1192.65 2064.04 1192.65C2119.78 1192.65 2155.93 1205.08 2172.48 1229.91C2184.07 1246.47 2189.86 1264.96 2189.86 1285.37C2189.86 1305.79 2188.2 1324.55 2184.89 1341.66L2162.55 1465C2162 1468.31 2161.73 1471.35 2161.73 1474.11C2161.73 1489 2170.01 1496.45 2186.56 1496.45C2199.25 1496.45 2210.55 1493.68 2220.48 1488.17L2216.36 1581.71C2190.42 1603.23 2160.89 1614.01 2127.78 1614.01C2052.73 1614.01 2015.2 1582.54 2015.2 1519.64C2015.2 1508.6 2016.31 1496.72 2018.51 1484.02L2036.73 1382.21C2038.39 1372.28 2039.21 1362.35 2039.21 1352.41C2039.2 1325.93 2025.14 1312.68 1997 1312.68C1969.4 1312.68 1947.88 1322.07 1932.43 1340.83L1886.06 1602.4H1745.34L1839.58 1080.33H1979.38L1949.8 1241.5Z" fill="white"/>
<path d="M2411.84 1465C2411.29 1468.31 2410.99 1471.35 2410.99 1474.11C2411 1489 2419.28 1496.45 2435.83 1496.45C2448.52 1496.45 2459.84 1493.68 2469.77 1488.17L2465.63 1581.71C2439.69 1603.23 2410.18 1614 2377.07 1614.01C2326.85 1614.01 2294.28 1602.41 2279.38 1579.24C2269.45 1563.79 2264.48 1547.5 2264.48 1530.39C2264.48 1512.74 2265.59 1497.27 2267.8 1484.02L2308.8 1253.08H2449.52L2411.84 1465Z" fill="white"/>
<path d="M2816.18 1192.65C2865.85 1192.65 2898.14 1204.79 2913.04 1229.07C2922.42 1244.52 2927.1 1262.19 2927.1 1282.05C2927.1 1301.92 2925.73 1320.41 2922.98 1337.51L2900.62 1465C2900.06 1468.31 2899.79 1471.35 2899.79 1474.11C2899.79 1489 2908.07 1496.45 2924.62 1496.45C2937.32 1496.45 2948.63 1493.68 2958.57 1488.17L2954.43 1581.71C2928.49 1603.23 2898.96 1614.01 2865.85 1614.01C2790.8 1614.01 2753.28 1582.54 2753.28 1519.64C2753.28 1508.6 2754.37 1496.72 2756.58 1484.02L2776.44 1373.93C2778.1 1364 2778.94 1355.44 2778.94 1348.27C2778.94 1324.55 2767.34 1312.68 2744.17 1312.68C2721.54 1312.68 2702.77 1321.23 2687.87 1338.34L2641.52 1602.4H2500.8L2571.16 1204.23H2701.94L2692.83 1253.08C2725.39 1212.79 2766.51 1192.65 2816.18 1192.65Z" fill="white"/>
<path fill-rule="evenodd" clip-rule="evenodd" d="M1001.34 1186.92C1052.66 1186.92 1087.43 1198.78 1105.65 1222.51L1109.77 1197.68H1235.61L1189.24 1458.45C1188.69 1461.76 1188.41 1465.07 1188.41 1468.38C1188.41 1482.72 1195.59 1489.89 1209.93 1489.9C1224.83 1489.9 1237.26 1487.13 1247.19 1481.61L1243.05 1575.16C1216.56 1596.68 1186.76 1607.45 1153.64 1607.45C1092.94 1607.45 1059.28 1585.36 1052.66 1541.21C1025.07 1585.36 984.508 1607.45 930.982 1607.45C840.478 1607.45 795.21 1568.53 795.21 1490.72C795.21 1477.48 796.593 1462.84 799.352 1446.84L816.746 1350C825.576 1300.33 845.716 1260.87 877.172 1231.62C909.179 1201.82 950.575 1186.92 1001.34 1186.92ZM1028.65 1305.3C986.16 1305.3 961.323 1325.72 954.147 1366.55L943.39 1428.65C942.287 1433.61 941.74 1440.51 941.74 1449.34C941.741 1458.16 945.873 1466.99 954.147 1475.82C962.424 1484.1 976.221 1488.25 995.531 1488.25C1015.4 1488.25 1032.52 1480.51 1046.87 1465.06L1071.7 1325.99C1065.63 1312.2 1051.27 1305.3 1028.65 1305.3Z" fill="white"/>
<path d="M1484.39 1197.68H1712.86L1692.17 1314.41H1463.7L1447.15 1407.95C1444.94 1418.43 1443.83 1427.81 1443.83 1436.08C1443.83 1470.85 1460.39 1488.24 1493.5 1488.25C1511.16 1488.25 1525.79 1480.79 1537.38 1465.89C1549.52 1450.99 1557.8 1431.12 1562.21 1406.28H1699.63C1676.45 1540.39 1598.91 1607.45 1467.02 1607.45C1403 1607.45 1356.91 1593.09 1328.77 1564.4C1307.8 1543.43 1297.32 1515.28 1297.32 1479.96C1297.32 1468.38 1298.43 1455.96 1300.64 1442.72L1356.92 1122.35L1508.4 1059.45L1484.39 1197.68Z" fill="white"/>
<path d="M2417.05 1042.37C2464.21 1042.37 2487.79 1063.14 2487.79 1104.68C2487.79 1140.05 2479.65 1165.88 2463.37 1182.16C2447.65 1198.44 2422.66 1206.58 2388.41 1206.58C2341.82 1206.58 2318.52 1186.37 2318.52 1145.95C2318.52 1110.02 2326.38 1083.91 2342.1 1067.63C2358.38 1050.79 2383.36 1042.37 2417.05 1042.37Z" fill="white"/>
<path fill-rule="evenodd" clip-rule="evenodd" d="M1157.55 588.047C1268.47 588.047 1323.94 629.984 1323.94 713.866C1323.94 726.006 1322.83 739.254 1320.63 753.601L1310.69 812.378H1058.21L1054.91 831.401C1053.81 838.023 1053.24 844.101 1053.24 849.619C1053.24 879.971 1071.18 895.145 1107.05 895.146C1120.3 895.146 1131.61 891.015 1141 882.738C1150.38 874.461 1155.89 864.798 1157.55 853.762L1294.97 855.41C1276.76 958.607 1204.72 1010.21 1078.9 1010.21C964.121 1010.2 906.732 970.468 906.731 891.003C906.732 879.968 907.843 868.1 910.05 855.41L927.424 752.776C936.805 699.798 961.095 659.225 1000.28 631.08C1040.01 602.387 1092.43 588.047 1157.55 588.047ZM1136.03 698.966C1120.58 698.966 1106.22 704.206 1092.98 714.691C1080.29 725.175 1071.46 740.901 1066.49 761.865H1178.24C1180.44 752.487 1181.56 743.931 1181.56 736.207C1181.55 727.931 1177.97 719.649 1170.8 711.373C1163.62 703.097 1152.03 698.966 1136.03 698.966Z" fill="white"/>
<path fill-rule="evenodd" clip-rule="evenodd" d="M1749.22 861.202C1748.67 864.511 1748.4 867.827 1748.4 871.136C1748.4 885.484 1755.56 892.672 1769.91 892.672C1784.81 892.672 1797.22 889.903 1807.15 884.387L1803.03 977.932C1776.54 999.453 1746.74 1010.2 1713.63 1010.21C1652.92 1010.21 1619.24 988.137 1612.62 943.988C1585.03 988.134 1544.47 1010.21 1490.95 1010.21C1400.44 1010.21 1355.19 971.305 1355.19 893.496C1355.19 880.252 1356.58 865.623 1359.33 849.619L1376.71 752.776C1385.54 703.111 1405.68 663.645 1437.13 634.397C1469.14 604.597 1513.3 589.696 1569.59 589.696C1604.35 589.697 1631.94 597.142 1652.36 612.037L1694.58 370.332H1836.13L1749.22 861.202ZM1588.63 708.075C1546.14 708.075 1521.31 728.489 1514.13 769.326L1503.37 831.401C1502.27 836.368 1501.7 843.283 1501.7 852.112C1501.71 860.939 1505.86 869.769 1514.13 878.596C1522.41 886.87 1536.2 891.003 1555.51 891.003C1575.38 891.003 1592.48 883.286 1606.83 867.838L1631.67 728.767C1625.6 714.972 1611.25 708.077 1588.63 708.075Z" fill="white"/>
<path fill-rule="evenodd" clip-rule="evenodd" d="M2530.46 588.872C2590.05 588.873 2635.03 601.846 2665.38 627.782C2689.11 648.201 2700.98 676.623 2700.98 713.042C2700.98 725.181 2699.59 738.431 2696.83 752.776L2679.46 849.619C2668.98 908.115 2644.41 949.508 2605.78 973.79C2567.71 998.072 2516.65 1010.21 2452.64 1010.21C2388.62 1010.21 2341.72 998.07 2311.92 973.79C2289.84 955.581 2278.8 928.265 2278.8 891.848C2278.8 879.155 2280.18 865.071 2282.94 849.619L2300.33 752.776C2319.65 643.509 2396.36 588.872 2530.46 588.872ZM2505.62 703.933C2487.97 703.933 2473.06 709.995 2460.92 722.131C2448.78 733.72 2441.05 749.459 2437.74 769.326L2426.98 831.401C2425.87 836.92 2425.33 844.108 2425.33 852.938C2425.33 861.214 2428.92 870.314 2436.09 880.245C2443.26 890.177 2455.67 895.144 2473.33 895.146C2491.53 895.146 2506.72 889.082 2518.85 876.947C2531 864.255 2538.73 849.061 2542.04 831.401L2552.8 769.326C2553.9 763.808 2554.47 756.91 2554.47 748.634C2554.47 739.804 2550.86 730.143 2543.69 719.658C2536.51 709.176 2523.83 703.934 2505.62 703.933Z" fill="white"/>
<path d="M2159.88 588.872C2195.75 588.872 2222.51 597.423 2240.17 614.53C2258.38 631.638 2267.48 655.09 2267.48 684.89C2267.48 703.652 2264.19 721.867 2257.56 739.525C2251.49 757.184 2245.42 770.157 2239.35 778.435L2230.24 790.018H2105.24C2119.04 777.327 2125.93 761.602 2125.93 742.843C2125.93 732.91 2122.62 724.903 2116 718.833C2109.93 712.211 2101.38 708.899 2090.34 708.899C2071.58 708.899 2055.29 718.271 2041.5 737.031L1997 977.932H1858.06L1924.79 600.454H2055.57L2045.64 655.914C2077.1 611.216 2115.18 588.872 2159.88 588.872Z" fill="white"/>
<path d="M3428.39 625.083C3434.87 556.538 3431.43 523.558 3418.62 482.343C3415.59 472.595 3411.55 463.146 3406.42 454.32C3355.88 367.35 3279.8 326.884 3145 324.864C2989.71 335.889 2892 431.111 2896.54 563.598C2896.54 563.598 2842.45 547.821 2802.89 553.844C2720.31 564.466 2687.22 587.026 2653.24 667.115C2648.2 678.982 2644.7 691.516 2642.82 704.269C2626.18 817.35 2650.74 882.137 2702.72 968.059C2708.91 978.291 2716.07 987.988 2724.56 996.406C2781.08 1052.44 2838.53 1066.56 2920.81 1084.31C3047.85 1108.25 3125.11 1103.57 3253.6 1087.05C3267.51 1085.26 3281.31 1081.98 3294.46 1077.08C3421.53 1029.77 3467.71 989.043 3482.74 893.924C3485.86 811.042 3470.27 774.538 3428.39 717.523C3434.16 716.534 3440.14 714.093 3445.94 710.716C3482.23 689.589 3460.81 651.774 3428.39 625.083Z" fill="#FFC516"/>
<path d="M3394.06 598.368C3409.98 609.919 3419.26 615.904 3436.92 625.082C3444.23 631.108 3449.41 634.914 3462.72 643.316C3475.08 650.011 3480.81 653.818 3488.99 660.702C3488.36 674.986 3483.27 683.909 3465.95 701.41C3457.1 708.088 3451.55 711.742 3436.92 717.523C3397.25 730.498 3373.78 734.181 3330.47 736.604C3275.4 730.272 3266.46 729.78 3247.99 728.548C3209.04 723.463 3201.2 715.663 3204.21 690.385C3201.27 673.154 3228.17 665.366 3238.31 660.702C3248.45 656.037 3267.22 649.934 3273.79 645.436C3299.34 628.765 3311.53 620.006 3330.47 605.153C3353.53 590.607 3367.2 587.426 3394.06 598.368Z" fill="#E1461B"/>
<path d="M3192.76 607.005C3220.24 607.005 3242.52 586.501 3242.52 561.209C3242.52 535.916 3220.24 515.413 3192.76 515.413C3165.27 515.413 3142.99 535.916 3142.99 561.209C3142.99 586.501 3165.27 607.005 3192.76 607.005Z" fill="black"/>
<path d="M3420.33 471.157C3423.38 471.247 3424.65 472.355 3426.32 475.821C3434.88 505.084 3437.78 521.704 3439.69 551.724C3438.56 558.133 3437.09 559.358 3432.77 556.812C3424.81 547.105 3421.5 537.791 3418.03 513.137C3413.93 479.43 3414.88 471.783 3420.33 471.157Z" fill="black"/>
</svg>
